<svg width="24" height="24" viewBox="0 0 24 24" fill="none" xmlns="http://www.w3.org/2000/svg">
<mask id="mask0_12_546" style="mask-type:alpha" maskUnits="userSpaceOnUse" x="2" y="2" width="20" height="20">
<rect x="2" y="2" width="20" height="20" fill="#D9D9D9"/>
</mask>
<g mask="url(#mask0_12_546)">
<path d="M11.9998 16.1667C13.1526 16.1667 14.1353 15.7604 14.9478 14.9479C15.7603 14.1354 16.1665 13.1528 16.1665 12C16.1665 10.8472 15.7603 9.86457 14.9478 9.05207C14.1353 8.23957 13.1526 7.83332 11.9998 7.83332C10.8471 7.83332 9.86442 8.23957 9.05192 9.05207C8.23942 9.86457 7.83317 10.8472 7.83317 12C7.83317 13.1528 8.23942 14.1354 9.05192 14.9479C9.86442 15.7604 10.8471 16.1667 11.9998 16.1667ZM11.9998 20.3333C10.8471 20.3333 9.76373 20.1146 8.74984 19.6771C7.73595 19.2396 6.854 18.6458 6.104 17.8958C5.354 17.1458 4.76025 16.2639 4.32275 15.25C3.88525 14.2361 3.6665 13.1528 3.6665 12C3.6665 10.8472 3.88525 9.76388 4.32275 8.74999C4.76025 7.7361 5.354 6.85416 6.104 6.10416C6.854 5.35416 7.73595 4.76041 8.74984 4.32291C9.76373 3.88541 10.8471 3.66666 11.9998 3.66666C13.1526 3.66666 14.2359 3.88541 15.2498 4.32291C16.2637 4.76041 17.1457 5.35416 17.8957 6.10416C18.6457 6.85416 19.2394 7.7361 19.6769 8.74999C20.1144 9.76388 20.3332 10.8472 20.3332 12C20.3332 13.1528 20.1144 14.2361 19.6769 15.25C19.2394 16.2639 18.6457 17.1458 17.8957 17.8958C17.1457 18.6458 16.2637 19.2396 15.2498 19.6771C14.2359 20.1146 13.1526 20.3333 11.9998 20.3333ZM11.9998 18.6667C13.8609 18.6667 15.4373 18.0208 16.729 16.7292C18.0207 15.4375 18.6665 13.8611 18.6665 12C18.6665 10.1389 18.0207 8.56249 16.729 7.27082C15.4373 5.97916 13.8609 5.33332 11.9998 5.33332C10.1387 5.33332 8.56234 5.97916 7.27067 7.27082C5.979 8.56249 5.33317 10.1389 5.33317 12C5.33317 13.8611 5.979 15.4375 7.27067 16.7292C8.56234 18.0208 10.1387 18.6667 11.9998 18.6667Z" fill="#ffffff"/>
</g>
</svg>
