<svg width="40" height="40" viewBox="0 0 40 40" fill="none" xmlns="http://www.w3.org/2000/svg">
<path d="M14 3C14 1.34315 15.3431 0 17 0H37C38.6569 0 40 1.34315 40 3V37C40 38.6569 38.6569 40 37 40H27C26.4477 40 26 39.5523 26 39C26 38.4477 26.4477 38 27 38H37C37.5523 38 38 37.5523 38 37V3C38 2.44771 37.5523 2 37 2H17C16.4477 2 16 2.44772 16 3V12C16 12.5523 15.5523 13 15 13C14.4477 13 14 12.5523 14 12V3Z" fill="#3860D9"/>
<path d="M18 6C18 4.89543 18.8954 4 20 4H34C35.1046 4 36 4.89543 36 6V14C36 14.3643 35.9026 14.7058 35.7324 15C35.9026 15.2942 36 15.6357 36 16V24C36 24.205 35.9692 24.4028 35.9119 24.5889C35.9685 24.7143 36 24.8535 36 25V34C36 35.1046 35.1046 36 34 36H27C26.4477 36 26 35.5523 26 35C26 34.4477 26.4477 34 27 34H34V26H27C26.4477 26 26 25.5523 26 25C26 24.4477 26.4477 24 27 24H34V16H25C24.4477 16 24 15.5523 24 15C24 14.4477 24.4477 14 25 14H34V6H20V12C20 12.5523 19.5523 13 19 13C18.4477 13 18 12.5523 18 12V6Z" fill="#3860D9"/>
<path d="M26 18C26 18.5523 26.4477 19 27 19C27.5523 19 28 18.5523 28 18C28 17.4477 27.5523 17 27 17C26.4477 17 26 17.4477 26 18Z" fill="#3860D9"/>
<path d="M26 8C26 8.55229 26.4477 9 27 9C27.5523 9 28 8.55229 28 8C28 7.44772 27.5523 7 27 7C26.4477 7 26 7.44772 26 8Z" fill="#3860D9"/>
<path d="M26 28C26 28.5523 26.4477 29 27 29C27.5523 29 28 28.5523 28 28C28 27.4477 27.5523 27 27 27C26.4477 27 26 27.4477 26 28Z" fill="#3860D9"/>
<path fill-rule="evenodd" clip-rule="evenodd" d="M6 15C2.68629 15 0 17.6863 0 21V36C0 38.2091 1.79086 40 4 40H20C22.2091 40 24 38.2091 24 36V21C24 17.6863 21.3137 15 18 15H6ZM4.35351 17.3535C2.96566 17.9811 2 19.3778 2 21V36C2 37.1046 2.89543 38 4 38H20C21.1046 38 22 37.1046 22 36V21C22 19.3778 21.0343 17.9811 19.6465 17.3535C19.8736 17.8556 20 18.4131 20 19V29C20 31.2091 18.2091 33 16 33H8C5.79086 33 4 31.2091 4 29V19C4 18.4131 4.12642 17.8556 4.35351 17.3535ZM18 19V25.5351C17.4117 25.1948 16.7286 25 16 25H8C7.27143 25 6.58835 25.1948 6 25.5351V19C6 17.8954 6.89543 17 8 17H16C17.1046 17 18 17.8954 18 19ZM8 31C6.89543 31 6 30.1046 6 29C6 27.8954 6.89543 27 8 27H16C17.1046 27 18 27.8954 18 29C18 30.1046 17.1046 31 16 31H8Z" fill="#3860D9"/>
<g opacity="0.15">
<path d="M27 1V5H34L35 6V8H27V15H35V18H27V25H35V28H27V39H37L39 37V3L37 1H27Z" fill="#3860D9"/>
<path d="M3 38V39H21L22 38L23 36V20L22 18L21 17L19 16V32C19 33.6569 17.6569 35 16 35H6C4.34315 35 3 36.3431 3 38Z" fill="#3860D9"/>
<path d="M10 26H5V17.25L6.5 16H13L11.3359 17.1094C10.5013 17.6658 10 18.6025 10 19.6056V26Z" fill="#3860D9"/>
</g>
</svg>
